Coordinates
version=1
nRows=17
nColumns=34
inDegrees=yes

Units are S.I. units (second, meters, Newtons, ...)
If the header above contains a line with 'inDegrees', this indicates whether rotational values are in degrees (yes) or radians (no).

endheader
time	pelvis_tilt	pelvis_list	pelvis_rotation	pelvis_tx	pelvis_ty	pelvis_tz	hip_flexion_r	hip_adduction_r	hip_rotation_r	knee_angle_r	ankle_angle_r	subtalar_angle_r	mtp_angle_r	hip_flexion_l	hip_adduction_l	hip_rotation_l	knee_angle_l	ankle_angle_l	subtalar_angle_l	mtp_angle_l	lumbar_extension	lumbar_bending	lumbar_rotation	arm_flex_r	arm_add_r	arm_rot_r	elbow_flex_r	pro_sup_r	arm_flex_l	arm_add_l	arm_rot_l	elbow_flex_l	pro_sup_l
      5.93333330	      7.19541125	     -5.61750986	      3.11003348	      0.35592033	      0.81314529	     -0.24833296	     36.42782450	     -5.68985544	     -7.87607363	      8.75568769	      5.69799702	     -7.09550972	      0.00000000	     33.75894460	     -1.46314973	      0.05369759	     69.35725790	     22.63906182	      7.47652426	      0.00000000	    -30.12562664	     -8.46792114	      0.36869755	     90.91238005	     -0.56767138	     56.98481589	    123.83930499	    100.04926358	    100.28287042	     -5.14895737	     73.68281782	    116.79833287	     86.36468745
      5.95000000	      7.22260072	     -5.47154418	      3.06496555	      0.35718275	      0.81829104	     -0.24825406	     36.64032510	     -5.87211528	     -7.83967356	      8.64091709	      5.58035718	     -6.26463152	      0.00000000	     32.55332927	     -1.58910634	     -0.65834240	     67.53967731	     22.48981693	      8.33854168	      0.00000000	    -29.81040128	     -8.72003469	      0.42281455	     90.73443682	     -0.69303710	     57.31895546	    123.48096701	     99.96995927	    100.03965092	     -5.14747584	     73.77785404	    117.13569444	     86.24554610
      5.96666670	      7.54421411	     -5.54556801	      3.22203757	      0.35847861	      0.82324143	     -0.24817043	     36.62534265	     -5.94535542	     -8.28539696	      9.04991273	      6.43406357	     -5.06078318	      0.00000000	     30.65856720	     -1.85887905	     -1.22316897	     65.43805100	     24.09297944	      8.35737922	      0.00000000	    -29.78336785	     -8.68127395	      0.22749715	     90.79430574	     -0.42574206	     57.75387653	    123.32354012	     99.72506309	     99.76292278	     -5.25571741	     73.69754572	    117.59229941	     85.89913667
      5.98333330	      7.63187997	     -5.52665365	      3.11747440	      0.35580295	      0.82828219	     -0.24842450	     37.09451813	     -6.06901457	     -8.78347380	      9.02672770	      5.86360751	     -4.85547188	      0.00000000	     29.87727790	     -1.94212586	     -1.46372735	     64.03806864	     25.01783459	      8.16297226	      0.00000000	    -29.68511878	     -8.86670877	      0.05128827	     90.83245654	     -0.35328456	     57.67293711	    123.44418003	     99.66356029	     99.79768306	     -5.37057061	     73.54627858	    117.72212067	     85.82070754
      6.00000000	      7.71944974	     -5.69909517	      3.24882419	      0.35952606	      0.83078419	     -0.24727880	     37.27784818	     -6.03079260	     -8.43324833	      9.02552034	      6.24367339	     -4.63228734	      0.00000000	     28.89345504	     -2.17715318	     -1.37824264	     63.09858839	     27.25072231	      7.45855367	      0.00000000	    -29.36926087	     -8.87171658	     -0.03839150	     90.79316555	     -0.08108783	     57.71690447	    123.82886751	     99.62663337	     99.58436981	     -5.43387138	     73.60375230	    117.85169456	     85.76969691
      6.01666670	      7.99955885	     -5.82513086	      3.40591550	      0.35799004	      0.83618250	     -0.24628572	     37.43791606	     -6.06117862	     -8.56110467	      9.35599088	      6.89890088	     -4.00343066	      0.00000000	     27.19926663	     -2.57026162	     -1.92752721	     61.48955209	     29.55980401	      7.61781965	      0.00000000	    -29.33102432	     -8.77046589	     -0.35090382	     90.79792098	      0.11014371	     57.49522324	    124.14549669	     99.49229471	     99.53247423	     -5.59977806	     73.18464706	    118.12829025	     85.52134378
      6.03333330	      8.20317523	     -6.10231128	      3.48868492	      0.35807096	      0.84060394	     -0.24639783	     37.54665503	     -5.93605972	     -8.63273468	      9.30234575	      7.32791599	     -3.39124961	      0.00000000	     25.58855756	     -2.93582668	     -2.33161813	     59.52517936	     32.08962640	      7.17253437	      0.00000000	    -29.13253745	     -8.62324996	     -0.56515264	     90.84922800	      0.26776539	     57.10954160	    124.31945865	     99.40246287	     99.57178850	     -5.80055027	     72.76380985	    118.10099813	     85.31732221
      6.05000000	      8.26850215	     -6.18342857	      3.62458567	      0.35952736	      0.84561315	     -0.24570632	     37.91074435	     -6.06979265	     -8.80397658	      9.41581170	      7.61899823	     -2.78401641	      0.00000000	     23.81381806	     -3.04694961	     -2.94716531	     57.12063422	     35.38126463	      7.18133422	      0.00000000	    -28.84099189	     -8.66586658	     -0.77330314	     90.91748009	      0.36966908	     56.95392729	    124.29571086	     99.35924516	     99.46786176	     -5.95425096	     72.32873949	    118.15863557	     85.13516614
      6.06666670	      8.63739971	     -6.48730733	      3.51131484	      0.36000996	      0.85097742	     -0.24609621	     38.18936708	     -5.94337396	     -9.42780608	      9.98185240	      8.24221015	     -1.77851196	      0.00000000	     21.86948155	     -3.53527495	     -3.58851761	     54.79319035	     37.13565926	      7.55704937	      0.00000000	    -28.79832098	     -8.39824743	     -0.59334295	     91.04348386	      0.38999318	     56.84621316	    123.89981351	     99.32052386	     99.11300550	     -6.08460844	     71.63455449	    118.38603588	     84.88226965
      6.08333330	      8.66838923	     -6.96141391	      3.29568894	      0.36480894	      0.85497016	     -0.24504020	     38.78385245	     -5.59887820	     -9.91414406	     10.59552466	      8.68719760	     -1.91595875	      0.00000000	     20.41115372	     -4.14201225	     -3.93853721	     52.93298735	     38.45078178	      7.14186075	      0.00000000	    -28.32726454	     -8.05379323	     -0.33431275	     90.77569059	      0.39810042	     56.93459630	    124.37000247	     99.33108565	     98.67349613	     -6.30367862	     71.22331523	    119.03167541	     84.80881482
      6.10000000	      8.81413164	     -7.17633089	      3.38187589	      0.36690870	      0.86050739	     -0.24448534	     38.89113398	     -5.60268456	    -10.26862976	     10.46014273	      9.14460913	     -1.81503073	      0.00000000	     18.91531746	     -4.52271461	     -4.41261782	     51.25315892	     39.39430996	      7.90837628	      0.00000000	    -27.89677287	     -7.88207231	     -0.27702343	     90.35591795	      0.35657935	     57.04363955	    124.87244784	     99.39053486	     97.84421685	     -6.52368268	     70.28949392	    120.32227534	     84.71501587
      6.11666670	      8.99781089	     -7.45933754	      3.42864352	      0.36836177	      0.86581476	     -0.24462403	     39.01172377	     -5.51945968	    -10.50654812	     10.50532105	      9.30749025	     -1.72518403	      0.00000000	     17.66769932	     -4.96280194	     -4.73359091	     49.64918050	     40.60135801	      7.79436367	      0.00000000	    -27.46212341	     -7.84567790	     -0.44250275	     89.88320007	      0.42769648	     57.26638186	    125.03650072	     99.42890299	     97.31137664	     -6.56441712	     70.34450141	    120.69426941	     84.70893079
      6.13333330	      9.47759009	     -7.61173556	      3.28337345	      0.36777000	      0.87095855	     -0.24540795	     38.80138878	     -5.41894921	    -11.11148659	     10.17213323	      9.36769048	     -0.75525600	      0.00000000	     16.00133009	     -5.26920158	     -5.27511470	     47.92443522	     40.52332764	      8.52132962	      0.00000000	    -27.32255903	     -7.75045622	     -0.55129396	     89.74595548	      0.70923044	     57.38098145	    125.04656632	     99.58809963	     96.75446957	     -6.96851010	     69.42506930	    121.46951159	     84.66405716
      6.15000000	      9.60287227	     -7.68734426	      3.31942677	      0.36616352	      0.87559643	     -0.24386738	     39.35120187	     -5.53817162	    -11.38268717	     10.15893223	      8.79725573	     -0.58925650	      0.00000000	     15.22942018	     -5.39593891	     -5.42170802	     46.33428697	     40.71937338	      8.69440731	      0.00000000	    -27.06998787	     -7.85109387	     -0.86156112	     89.61202299	      0.60978110	     57.33985404	    125.13560378	     99.63030366	     96.73613544	     -7.01146195	     69.17576077	    121.85899952	     84.65957701
      6.16666670	      9.87130664	     -7.83217597	      3.19242465	      0.36693047	      0.88131633	     -0.24292389	     39.68693996	     -5.39996258	    -11.82264990	     10.21440596	      8.40026114	     -0.55679926	      0.00000000	     14.17698276	     -5.77571737	     -5.56657616	     44.71412980	     40.18191562	      9.07588667	      0.00000000	    -26.80428050	     -7.98647612	     -0.95675196	     89.11681771	      0.55512032	     57.27859211	    125.41822969	     99.69004191	     96.23762698	     -7.27230294	     69.10039299	    122.82263765	     84.68255806
      6.18333330	     10.13686461	     -7.97620912	      3.20804202	      0.36624678	      0.89051238	     -0.24345203	     39.69788073	     -5.35374122	    -12.57451376	     10.10993579	      7.58947468	     -0.72809120	      0.00000000	     12.96922177	     -5.87455709	     -5.61889463	     42.73033079	     38.14268446	      9.51214160	      0.00000000	    -26.83665793	     -7.85600693	     -0.88054225	     88.84099419	      0.41366857	     57.36397895	    125.40180170	     99.79346984	     95.73947350	     -7.30532741	     69.14321335	    124.72544499	     84.77207300
      6.20000000	     10.79559002	     -8.38969776	      3.20259164	      0.36798296	      0.89050517	     -0.24320181	     39.50484346	     -5.21271102	    -13.33339765	     10.64241219	      6.98496297	     -2.09238045	      0.00000000	     11.05916776	     -6.29312296	     -5.73468440	     41.17311855	     33.94844649	      9.37901654	      0.00000000	    -27.25120506	     -7.15417843	     -0.54697092	     89.44613984	      0.49169149	     57.54578741	    124.50029089	     99.91148745	     95.76512967	     -7.11800305	     68.69320714	    126.32161314	     84.94628284
